<svg width="330" height="330" viewBox="0 0 330 330" fill="none" xmlns="http://www.w3.org/2000/svg">
<rect width="330" height="330" rx="165" fill="#212529"/>
<path d="M17 107.906C17 104.633 19.4731 102 22.547 102H33.0633C38.1481 102 42.6551 105.15 44.7583 109.875H139.751C145.83 109.875 150.268 116.027 148.673 122.278L139.197 159.758C137.232 167.486 130.645 172.875 123.133 172.875H56.4533L57.7014 179.889C58.2099 182.67 60.498 184.688 63.156 184.688H129.79C132.864 184.688 135.337 187.321 135.337 190.594C135.337 193.867 132.864 196.5 129.79 196.5H63.156C55.159 196.5 48.2945 190.446 46.8153 182.104L34.8892 115.412C34.7274 114.477 33.9647 113.813 33.0633 113.813H22.547C19.4731 113.813 17 111.179 17 107.906ZM46.5842 216.188C46.5842 214.636 46.8712 213.1 47.4287 211.667C47.9862 210.234 48.8034 208.932 49.8336 207.835C50.8638 206.738 52.0868 205.868 53.4328 205.274C54.7788 204.681 56.2214 204.375 57.6783 204.375C59.1352 204.375 60.5778 204.681 61.9238 205.274C63.2698 205.868 64.4928 206.738 65.523 207.835C66.5532 208.932 67.3704 210.234 67.9279 211.667C68.4854 213.1 68.7724 214.636 68.7724 216.188C68.7724 217.739 68.4854 219.275 67.9279 220.708C67.3704 222.141 66.5532 223.443 65.523 224.54C64.4928 225.637 63.2698 226.507 61.9238 227.101C60.5778 227.694 59.1352 228 57.6783 228C56.2214 228 54.7788 227.694 53.4328 227.101C52.0868 226.507 50.8638 225.637 49.8336 224.54C48.8034 223.443 47.9862 222.141 47.4287 220.708C46.8712 219.275 46.5842 217.739 46.5842 216.188ZM124.243 204.375C127.185 204.375 130.007 205.62 132.087 207.835C134.168 210.05 135.337 213.055 135.337 216.188C135.337 219.32 134.168 222.325 132.087 224.54C130.007 226.755 127.185 228 124.243 228C121.3 228 118.479 226.755 116.398 224.54C114.318 222.325 113.149 219.32 113.149 216.188C113.149 213.055 114.318 210.05 116.398 207.835C118.479 205.62 121.3 204.375 124.243 204.375Z" fill="#E74C3C"/>
<path d="M102.668 136.68L93.1484 165H81.6684L72.1484 136.68H81.5884L87.4284 156.16L93.2284 136.68H102.668ZM126.496 153.52C126.496 154.133 126.456 154.72 126.376 155.28H112.096C112.23 157.227 113.043 158.2 114.536 158.2C115.496 158.2 116.19 157.76 116.616 156.88H126.016C125.696 158.48 125.016 159.92 123.976 161.2C122.963 162.453 121.67 163.453 120.096 164.2C118.55 164.92 116.843 165.28 114.976 165.28C112.736 165.28 110.736 164.813 108.976 163.88C107.243 162.947 105.883 161.613 104.896 159.88C103.936 158.12 103.456 156.067 103.456 153.72C103.456 151.373 103.936 149.333 104.896 147.6C105.883 145.84 107.243 144.493 108.976 143.56C110.736 142.627 112.736 142.16 114.976 142.16C117.216 142.16 119.203 142.627 120.936 143.56C122.696 144.467 124.056 145.773 125.016 147.48C126.003 149.187 126.496 151.2 126.496 153.52ZM117.496 151.4C117.496 150.653 117.256 150.093 116.776 149.72C116.296 149.32 115.696 149.12 114.976 149.12C113.403 149.12 112.483 149.88 112.216 151.4H117.496ZM139.345 165.28C137.211 165.28 135.318 164.933 133.665 164.24C132.038 163.547 130.745 162.587 129.785 161.36C128.825 160.133 128.278 158.747 128.145 157.2H136.665C136.771 157.867 137.051 158.36 137.505 158.68C137.985 159 138.585 159.16 139.305 159.16C139.758 159.16 140.118 159.067 140.385 158.88C140.651 158.667 140.785 158.413 140.785 158.12C140.785 157.613 140.505 157.253 139.945 157.04C139.385 156.827 138.438 156.587 137.105 156.32C135.478 156 134.131 155.653 133.065 155.28C132.025 154.907 131.105 154.267 130.305 153.36C129.531 152.453 129.145 151.2 129.145 149.6C129.145 148.213 129.505 146.96 130.225 145.84C130.971 144.693 132.065 143.8 133.505 143.16C134.945 142.493 136.691 142.16 138.745 142.16C141.785 142.16 144.158 142.907 145.865 144.4C147.598 145.893 148.638 147.84 148.985 150.24H141.105C140.971 149.627 140.691 149.16 140.265 148.84C139.838 148.493 139.265 148.32 138.545 148.32C138.091 148.32 137.745 148.413 137.505 148.6C137.265 148.76 137.145 149.013 137.145 149.36C137.145 149.813 137.425 150.16 137.985 150.4C138.545 150.613 139.438 150.84 140.665 151.08C142.291 151.4 143.665 151.76 144.785 152.16C145.905 152.56 146.878 153.253 147.705 154.24C148.531 155.2 148.945 156.533 148.945 158.24C148.945 159.573 148.558 160.773 147.785 161.84C147.011 162.907 145.891 163.747 144.425 164.36C142.985 164.973 141.291 165.28 139.345 165.28ZM166.509 157.44V165H163.149C156.962 165 153.869 161.92 153.869 155.76V149.84H151.069V142.44H153.869V137H162.749V142.44H166.429V149.84H162.749V155.92C162.749 156.453 162.869 156.84 163.109 157.08C163.375 157.32 163.802 157.44 164.389 157.44H166.509ZM174.371 140.64C172.824 140.64 171.584 140.227 170.651 139.4C169.717 138.573 169.251 137.533 169.251 136.28C169.251 135 169.717 133.947 170.651 133.12C171.584 132.267 172.824 131.84 174.371 131.84C175.891 131.84 177.117 132.267 178.051 133.12C178.984 133.947 179.451 135 179.451 136.28C179.451 137.533 178.984 138.573 178.051 139.4C177.117 140.227 175.891 140.64 174.371 140.64ZM178.771 142.44V165H169.891V142.44H178.771ZM191.661 146.6C192.568 145.293 193.675 144.253 194.981 143.48C196.288 142.68 197.648 142.28 199.061 142.28V151.76H196.541C194.861 151.76 193.621 152.053 192.821 152.64C192.048 153.227 191.661 154.267 191.661 155.76V165H182.781V142.44H191.661V146.6ZM229.973 136.68L220.453 165H208.973L199.453 136.68H208.893L214.733 156.16L220.533 136.68H229.973ZM236.441 140.64C234.894 140.64 233.654 140.227 232.721 139.4C231.788 138.573 231.321 137.533 231.321 136.28C231.321 135 231.788 133.947 232.721 133.12C233.654 132.267 234.894 131.84 236.441 131.84C237.961 131.84 239.188 132.267 240.121 133.12C241.054 133.947 241.521 135 241.521 136.28C241.521 137.533 241.054 138.573 240.121 139.4C239.188 140.227 237.961 140.64 236.441 140.64ZM240.841 142.44V165H231.961V142.44H240.841ZM253.732 145.52C254.292 144.48 255.092 143.667 256.132 143.08C257.198 142.467 258.465 142.16 259.932 142.16C261.692 142.16 263.278 142.627 264.692 143.56C266.105 144.467 267.212 145.8 268.012 147.56C268.838 149.293 269.252 151.347 269.252 153.72C269.252 156.093 268.838 158.16 268.012 159.92C267.212 161.653 266.105 162.987 264.692 163.92C263.278 164.827 261.692 165.28 259.932 165.28C258.465 165.28 257.198 164.987 256.132 164.4C255.092 163.787 254.292 162.96 253.732 161.92V165H244.852V135.4H253.732V145.52ZM260.252 153.72C260.252 152.52 259.945 151.587 259.332 150.92C258.718 150.253 257.932 149.92 256.972 149.92C256.012 149.92 255.225 150.253 254.612 150.92C253.998 151.587 253.692 152.52 253.692 153.72C253.692 154.92 253.998 155.853 254.612 156.52C255.225 157.187 256.012 157.52 256.972 157.52C257.932 157.52 258.718 157.187 259.332 156.52C259.945 155.853 260.252 154.92 260.252 153.72ZM293.879 153.52C293.879 154.133 293.839 154.72 293.759 155.28H279.479C279.612 157.227 280.426 158.2 281.919 158.2C282.879 158.2 283.572 157.76 283.999 156.88H293.399C293.079 158.48 292.399 159.92 291.359 161.2C290.346 162.453 289.052 163.453 287.479 164.2C285.932 164.92 284.226 165.28 282.359 165.28C280.119 165.28 278.119 164.813 276.359 163.88C274.626 162.947 273.266 161.613 272.279 159.88C271.319 158.12 270.839 156.067 270.839 153.72C270.839 151.373 271.319 149.333 272.279 147.6C273.266 145.84 274.626 144.493 276.359 143.56C278.119 142.627 280.119 142.16 282.359 142.16C284.599 142.16 286.586 142.627 288.319 143.56C290.079 144.467 291.439 145.773 292.399 147.48C293.386 149.187 293.879 151.2 293.879 153.52ZM284.879 151.4C284.879 150.653 284.639 150.093 284.159 149.72C283.679 149.32 283.079 149.12 282.359 149.12C280.786 149.12 279.866 149.88 279.599 151.4H284.879ZM306.728 165.28C304.594 165.28 302.701 164.933 301.048 164.24C299.421 163.547 298.128 162.587 297.168 161.36C296.208 160.133 295.661 158.747 295.528 157.2H304.048C304.154 157.867 304.434 158.36 304.888 158.68C305.368 159 305.968 159.16 306.688 159.16C307.141 159.16 307.501 159.067 307.768 158.88C308.034 158.667 308.168 158.413 308.168 158.12C308.168 157.613 307.888 157.253 307.328 157.04C306.768 156.827 305.821 156.587 304.488 156.32C302.861 156 301.514 155.653 300.448 155.28C299.408 154.907 298.488 154.267 297.688 153.36C296.914 152.453 296.528 151.2 296.528 149.6C296.528 148.213 296.888 146.96 297.608 145.84C298.354 144.693 299.448 143.8 300.888 143.16C302.328 142.493 304.074 142.16 306.128 142.16C309.168 142.16 311.541 142.907 313.248 144.4C314.981 145.893 316.021 147.84 316.368 150.24H308.488C308.354 149.627 308.074 149.16 307.648 148.84C307.221 148.493 306.648 148.32 305.928 148.32C305.474 148.32 305.128 148.413 304.888 148.6C304.648 148.76 304.528 149.013 304.528 149.36C304.528 149.813 304.808 150.16 305.368 150.4C305.928 150.613 306.821 150.84 308.048 151.08C309.674 151.4 311.048 151.76 312.168 152.16C313.288 152.56 314.261 153.253 315.088 154.24C315.914 155.2 316.328 156.533 316.328 158.24C316.328 159.573 315.941 160.773 315.168 161.84C314.394 162.907 313.274 163.747 311.808 164.36C310.368 164.973 308.674 165.28 306.728 165.28Z" fill="white"/>
</svg>
