<svg width="118" height="30" viewBox="0 0 118 30" fill="none" xmlns="http://www.w3.org/2000/svg">
<path d="M14.588 7.96L9.60797 22H5.32797L0.347969 7.96H3.98797L7.46797 18.56L10.968 7.96H14.588ZM26.5373 16.24C26.5373 16.56 26.5173 16.8933 26.4773 17.24H18.7373C18.7907 17.9333 19.0107 18.4667 19.3973 18.84C19.7973 19.2 20.284 19.38 20.8573 19.38C21.7107 19.38 22.304 19.02 22.6373 18.3H26.2773C26.0907 19.0333 25.7507 19.6933 25.2573 20.28C24.7773 20.8667 24.1707 21.3267 23.4373 21.66C22.704 21.9933 21.884 22.16 20.9773 22.16C19.884 22.16 18.9107 21.9267 18.0573 21.46C17.204 20.9933 16.5373 20.3267 16.0573 19.46C15.5773 18.5933 15.3373 17.58 15.3373 16.42C15.3373 15.26 15.5707 14.2467 16.0373 13.38C16.5173 12.5133 17.184 11.8467 18.0373 11.38C18.8907 10.9133 19.8707 10.68 20.9773 10.68C22.0573 10.68 23.0173 10.9067 23.8573 11.36C24.6973 11.8133 25.3507 12.46 25.8173 13.3C26.2973 14.14 26.5373 15.12 26.5373 16.24ZM23.0373 15.34C23.0373 14.7533 22.8373 14.2867 22.4373 13.94C22.0373 13.5933 21.5373 13.42 20.9373 13.42C20.364 13.42 19.8773 13.5867 19.4773 13.92C19.0907 14.2533 18.8507 14.7267 18.7573 15.34H23.0373ZM32.8816 22.16C31.9082 22.16 31.0416 21.9933 30.2816 21.66C29.5216 21.3267 28.9216 20.8733 28.4816 20.3C28.0416 19.7133 27.7949 19.06 27.7416 18.34H31.1216C31.1616 18.7267 31.3416 19.04 31.6616 19.28C31.9816 19.52 32.3749 19.64 32.8416 19.64C33.2682 19.64 33.5949 19.56 33.8216 19.4C34.0616 19.2267 34.1816 19.0067 34.1816 18.74C34.1816 18.42 34.0149 18.1867 33.6816 18.04C33.3482 17.88 32.8082 17.7067 32.0616 17.52C31.2616 17.3333 30.5949 17.14 30.0616 16.94C29.5282 16.7267 29.0682 16.4 28.6816 15.96C28.2949 15.5067 28.1016 14.9 28.1016 14.14C28.1016 13.5 28.2749 12.92 28.6216 12.4C28.9816 11.8667 29.5016 11.4467 30.1816 11.14C30.8749 10.8333 31.6949 10.68 32.6416 10.68C34.0416 10.68 35.1416 11.0267 35.9416 11.72C36.7549 12.4133 37.2216 13.3333 37.3416 14.48H34.1816C34.1282 14.0933 33.9549 13.7867 33.6616 13.56C33.3816 13.3333 33.0082 13.22 32.5416 13.22C32.1416 13.22 31.8349 13.3 31.6216 13.46C31.4082 13.6067 31.3016 13.8133 31.3016 14.08C31.3016 14.4 31.4682 14.64 31.8016 14.8C32.1482 14.96 32.6816 15.12 33.4016 15.28C34.2282 15.4933 34.9016 15.7067 35.4216 15.92C35.9416 16.12 36.3949 16.4533 36.7816 16.92C37.1816 17.3733 37.3882 17.9867 37.4016 18.76C37.4016 19.4133 37.2149 20 36.8416 20.52C36.4816 21.0267 35.9549 21.4267 35.2616 21.72C34.5816 22.0133 33.7882 22.16 32.8816 22.16ZM45.7139 19.1V22H43.9739C42.7339 22 41.7672 21.7 41.0739 21.1C40.3806 20.4867 40.0339 19.4933 40.0339 18.12V13.68H38.6739V10.84H40.0339V8.12H43.4539V10.84H45.6939V13.68H43.4539V18.16C43.4539 18.4933 43.5339 18.7333 43.6939 18.88C43.8539 19.0267 44.1206 19.1 44.4939 19.1H45.7139ZM49.3389 9.68C48.7389 9.68 48.2456 9.50667 47.8589 9.16C47.4856 8.8 47.2989 8.36 47.2989 7.84C47.2989 7.30667 47.4856 6.86667 47.8589 6.52C48.2456 6.16 48.7389 5.98 49.3389 5.98C49.9256 5.98 50.4056 6.16 50.7789 6.52C51.1656 6.86667 51.3589 7.30667 51.3589 7.84C51.3589 8.36 51.1656 8.8 50.7789 9.16C50.4056 9.50667 49.9256 9.68 49.3389 9.68ZM51.0389 10.84V22H47.6189V10.84H51.0389ZM56.9373 12.7C57.3373 12.0867 57.8373 11.6067 58.4373 11.26C59.0373 10.9 59.704 10.72 60.4373 10.72V14.34H59.4973C58.644 14.34 58.004 14.5267 57.5773 14.9C57.1507 15.26 56.9373 15.9 56.9373 16.82V22H53.5173V10.84H56.9373V12.7Z" fill="black"/>
<path d="M74.42 7.96L69.44 22H65.16L60.18 7.96H63.82L67.3 18.56L70.8 7.96H74.42ZM77.5694 9.68C76.9694 9.68 76.476 9.50667 76.0894 9.16C75.716 8.8 75.5294 8.36 75.5294 7.84C75.5294 7.30667 75.716 6.86667 76.0894 6.52C76.476 6.16 76.9694 5.98 77.5694 5.98C78.156 5.98 78.636 6.16 79.0094 6.52C79.396 6.86667 79.5894 7.30667 79.5894 7.84C79.5894 8.36 79.396 8.8 79.0094 9.16C78.636 9.50667 78.156 9.68 77.5694 9.68ZM79.2694 10.84V22H75.8494V10.84H79.2694ZM85.1678 12.42C85.4878 11.9 85.9478 11.48 86.5478 11.16C87.1478 10.84 87.8345 10.68 88.6078 10.68C89.5278 10.68 90.3611 10.9133 91.1078 11.38C91.8545 11.8467 92.4411 12.5133 92.8678 13.38C93.3078 14.2467 93.5278 15.2533 93.5278 16.4C93.5278 17.5467 93.3078 18.56 92.8678 19.44C92.4411 20.3067 91.8545 20.98 91.1078 21.46C90.3611 21.9267 89.5278 22.16 88.6078 22.16C87.8211 22.16 87.1345 22.0067 86.5478 21.7C85.9611 21.38 85.5011 20.96 85.1678 20.44V22H81.7478V7.2H85.1678V12.42ZM90.0478 16.4C90.0478 15.5467 89.8078 14.88 89.3278 14.4C88.8611 13.9067 88.2811 13.66 87.5878 13.66C86.9078 13.66 86.3278 13.9067 85.8478 14.4C85.3811 14.8933 85.1478 15.5667 85.1478 16.42C85.1478 17.2733 85.3811 17.9467 85.8478 18.44C86.3278 18.9333 86.9078 19.18 87.5878 19.18C88.2678 19.18 88.8478 18.9333 89.3278 18.44C89.8078 17.9333 90.0478 17.2533 90.0478 16.4ZM105.842 16.24C105.842 16.56 105.822 16.8933 105.782 17.24H98.042C98.0954 17.9333 98.3154 18.4667 98.702 18.84C99.102 19.2 99.5887 19.38 100.162 19.38C101.015 19.38 101.609 19.02 101.942 18.3H105.582C105.395 19.0333 105.055 19.6933 104.562 20.28C104.082 20.8667 103.475 21.3267 102.742 21.66C102.009 21.9933 101.189 22.16 100.282 22.16C99.1887 22.16 98.2154 21.9267 97.362 21.46C96.5087 20.9933 95.842 20.3267 95.362 19.46C94.882 18.5933 94.642 17.58 94.642 16.42C94.642 15.26 94.8754 14.2467 95.342 13.38C95.822 12.5133 96.4887 11.8467 97.342 11.38C98.1954 10.9133 99.1754 10.68 100.282 10.68C101.362 10.68 102.322 10.9067 103.162 11.36C104.002 11.8133 104.655 12.46 105.122 13.3C105.602 14.14 105.842 15.12 105.842 16.24ZM102.342 15.34C102.342 14.7533 102.142 14.2867 101.742 13.94C101.342 13.5933 100.842 13.42 100.242 13.42C99.6687 13.42 99.182 13.5867 98.782 13.92C98.3954 14.2533 98.1554 14.7267 98.062 15.34H102.342ZM112.186 22.16C111.213 22.16 110.346 21.9933 109.586 21.66C108.826 21.3267 108.226 20.8733 107.786 20.3C107.346 19.7133 107.1 19.06 107.046 18.34H110.426C110.466 18.7267 110.646 19.04 110.966 19.28C111.286 19.52 111.68 19.64 112.146 19.64C112.573 19.64 112.9 19.56 113.126 19.4C113.366 19.2267 113.486 19.0067 113.486 18.74C113.486 18.42 113.32 18.1867 112.986 18.04C112.653 17.88 112.113 17.7067 111.366 17.52C110.566 17.3333 109.9 17.14 109.366 16.94C108.833 16.7267 108.373 16.4 107.986 15.96C107.6 15.5067 107.406 14.9 107.406 14.14C107.406 13.5 107.58 12.92 107.926 12.4C108.286 11.8667 108.806 11.4467 109.486 11.14C110.18 10.8333 111 10.68 111.946 10.68C113.346 10.68 114.446 11.0267 115.246 11.72C116.06 12.4133 116.526 13.3333 116.646 14.48H113.486C113.433 14.0933 113.26 13.7867 112.966 13.56C112.686 13.3333 112.313 13.22 111.846 13.22C111.446 13.22 111.14 13.3 110.926 13.46C110.713 13.6067 110.606 13.8133 110.606 14.08C110.606 14.4 110.773 14.64 111.106 14.8C111.453 14.96 111.986 15.12 112.706 15.28C113.533 15.4933 114.206 15.7067 114.726 15.92C115.246 16.12 115.7 16.4533 116.086 16.92C116.486 17.3733 116.693 17.9867 116.706 18.76C116.706 19.4133 116.52 20 116.146 20.52C115.786 21.0267 115.26 21.4267 114.566 21.72C113.886 22.0133 113.093 22.16 112.186 22.16Z" fill="white"/>
</svg>
