<svg width="140" height="30" viewBox="0 0 140 30" fill="none" xmlns="http://www.w3.org/2000/svg">
<path d="M0 7.98438C0 7.43887 0.412176 7 0.924507 7H2.67722C3.52468 7 4.27584 7.525 4.62638 8.3125H20.4586C21.4717 8.3125 22.2113 9.33789 21.9455 10.3797L20.3661 16.6264C20.0387 17.9143 18.9408 18.8125 17.6889 18.8125H6.57555L6.78357 19.9814C6.86831 20.4449 7.24967 20.7813 7.69266 20.7813H18.7983C19.3106 20.7813 19.7228 21.2201 19.7228 21.7656C19.7228 22.3111 19.3106 22.75 18.7983 22.75H7.69266C6.35983 22.75 5.21576 21.741 4.96922 20.3506L2.98153 9.23535C2.95457 9.07949 2.82745 8.96875 2.67722 8.96875H0.924507C0.412176 8.96875 0 8.52988 0 7.98438ZM4.9307 26.0312C4.9307 25.7727 4.97853 25.5167 5.07145 25.2778C5.16437 25.039 5.30057 24.8219 5.47226 24.6391C5.64396 24.4563 5.8478 24.3113 6.07213 24.2124C6.29646 24.1134 6.5369 24.0625 6.77971 24.0625C7.02253 24.0625 7.26297 24.1134 7.4873 24.2124C7.71163 24.3113 7.91547 24.4563 8.08716 24.6391C8.25886 24.8219 8.39506 25.039 8.48798 25.2778C8.5809 25.5167 8.62873 25.7727 8.62873 26.0312C8.62873 26.2898 8.5809 26.5458 8.48798 26.7847C8.39506 27.0235 8.25886 27.2406 8.08716 27.4234C7.91547 27.6062 7.71163 27.7512 7.4873 27.8501C7.26297 27.9491 7.02253 28 6.77971 28C6.5369 28 6.29646 27.9491 6.07213 27.8501C5.8478 27.7512 5.64396 27.6062 5.47226 27.4234C5.30057 27.2406 5.16437 27.0235 5.07145 26.7847C4.97853 26.5458 4.9307 26.2898 4.9307 26.0312ZM17.8738 24.0625C18.3642 24.0625 18.8345 24.2699 19.1812 24.6391C19.528 25.0083 19.7228 25.5091 19.7228 26.0312C19.7228 26.5534 19.528 27.0542 19.1812 27.4234C18.8345 27.7926 18.3642 28 17.8738 28C17.3834 28 16.9131 27.7926 16.5663 27.4234C16.2196 27.0542 16.0248 26.5534 16.0248 26.0312C16.0248 25.5091 16.2196 25.0083 16.5663 24.6391C16.9131 24.2699 17.3834 24.0625 17.8738 24.0625Z" fill="#E74C3C"/>
<path d="M32.3342 7.84L27.5742 22H21.8342L17.0742 7.84H21.7942L24.7142 17.58L27.6142 7.84H32.3342ZM44.2481 16.26C44.2481 16.5667 44.2281 16.86 44.1881 17.14H37.0481C37.1148 18.1133 37.5215 18.6 38.2681 18.6C38.7481 18.6 39.0948 18.38 39.3081 17.94H44.0081C43.8481 18.74 43.5081 19.46 42.9881 20.1C42.4815 20.7267 41.8348 21.2267 41.0481 21.6C40.2748 21.96 39.4215 22.14 38.4881 22.14C37.3681 22.14 36.3681 21.9067 35.4881 21.44C34.6215 20.9733 33.9415 20.3067 33.4481 19.44C32.9681 18.56 32.7281 17.5333 32.7281 16.36C32.7281 15.1867 32.9681 14.1667 33.4481 13.3C33.9415 12.42 34.6215 11.7467 35.4881 11.28C36.3681 10.8133 37.3681 10.58 38.4881 10.58C39.6081 10.58 40.6015 10.8133 41.4681 11.28C42.3481 11.7333 43.0281 12.3867 43.5081 13.24C44.0015 14.0933 44.2481 15.1 44.2481 16.26ZM39.7481 15.2C39.7481 14.8267 39.6281 14.5467 39.3881 14.36C39.1481 14.16 38.8481 14.06 38.4881 14.06C37.7015 14.06 37.2415 14.44 37.1081 15.2H39.7481ZM50.6723 22.14C49.6057 22.14 48.659 21.9667 47.8323 21.62C47.019 21.2733 46.3723 20.7933 45.8923 20.18C45.4123 19.5667 45.139 18.8733 45.0723 18.1H49.3323C49.3857 18.4333 49.5257 18.68 49.7523 18.84C49.9923 19 50.2923 19.08 50.6523 19.08C50.879 19.08 51.059 19.0333 51.1923 18.94C51.3257 18.8333 51.3923 18.7067 51.3923 18.56C51.3923 18.3067 51.2523 18.1267 50.9723 18.02C50.6923 17.9133 50.219 17.7933 49.5523 17.66C48.739 17.5 48.0657 17.3267 47.5323 17.14C47.0123 16.9533 46.5523 16.6333 46.1523 16.18C45.7657 15.7267 45.5723 15.1 45.5723 14.3C45.5723 13.6067 45.7523 12.98 46.1123 12.42C46.4857 11.8467 47.0323 11.4 47.7523 11.08C48.4723 10.7467 49.3457 10.58 50.3723 10.58C51.8923 10.58 53.079 10.9533 53.9323 11.7C54.799 12.4467 55.319 13.42 55.4923 14.62H51.5523C51.4857 14.3133 51.3457 14.08 51.1323 13.92C50.919 13.7467 50.6323 13.66 50.2723 13.66C50.0457 13.66 49.8723 13.7067 49.7523 13.8C49.6323 13.88 49.5723 14.0067 49.5723 14.18C49.5723 14.4067 49.7123 14.58 49.9923 14.7C50.2723 14.8067 50.719 14.92 51.3323 15.04C52.1457 15.2 52.8323 15.38 53.3923 15.58C53.9523 15.78 54.439 16.1267 54.8523 16.62C55.2657 17.1 55.4723 17.7667 55.4723 18.62C55.4723 19.2867 55.279 19.8867 54.8923 20.42C54.5057 20.9533 53.9457 21.3733 53.2123 21.68C52.4923 21.9867 51.6457 22.14 50.6723 22.14ZM64.2544 18.22V22H62.5744C59.481 22 57.9344 20.46 57.9344 17.38V14.42H56.5344V10.72H57.9344V8H62.3744V10.72H64.2144V14.42H62.3744V17.46C62.3744 17.7267 62.4344 17.92 62.5544 18.04C62.6877 18.16 62.901 18.22 63.1944 18.22H64.2544ZM68.1853 9.82C67.412 9.82 66.792 9.61333 66.3253 9.2C65.8586 8.78667 65.6253 8.26667 65.6253 7.64C65.6253 7 65.8586 6.47333 66.3253 6.06C66.792 5.63333 67.412 5.42 68.1853 5.42C68.9453 5.42 69.5586 5.63333 70.0253 6.06C70.492 6.47333 70.7253 7 70.7253 7.64C70.7253 8.26667 70.492 8.78667 70.0253 9.2C69.5586 9.61333 68.9453 9.82 68.1853 9.82ZM70.3853 10.72V22H65.9453V10.72H70.3853ZM76.8306 12.8C77.284 12.1467 77.8373 11.6267 78.4906 11.24C79.144 10.84 79.824 10.64 80.5306 10.64V15.38H79.2706C78.4306 15.38 77.8106 15.5267 77.4106 15.82C77.024 16.1133 76.8306 16.6333 76.8306 17.38V22H72.3906V10.72H76.8306V12.8ZM95.9866 7.84L91.2266 22H85.4866L80.7266 7.84H85.4466L88.3666 17.58L91.2666 7.84H95.9866ZM99.2205 9.82C98.4471 9.82 97.8271 9.61333 97.3605 9.2C96.8938 8.78667 96.6605 8.26667 96.6605 7.64C96.6605 7 96.8938 6.47333 97.3605 6.06C97.8271 5.63333 98.4471 5.42 99.2205 5.42C99.9805 5.42 100.594 5.63333 101.06 6.06C101.527 6.47333 101.76 7 101.76 7.64C101.76 8.26667 101.527 8.78667 101.06 9.2C100.594 9.61333 99.9805 9.82 99.2205 9.82ZM101.42 10.72V22H96.9805V10.72H101.42ZM107.866 12.26C108.146 11.74 108.546 11.3333 109.066 11.04C109.599 10.7333 110.232 10.58 110.966 10.58C111.846 10.58 112.639 10.8133 113.346 11.28C114.052 11.7333 114.606 12.4 115.006 13.28C115.419 14.1467 115.626 15.1733 115.626 16.36C115.626 17.5467 115.419 18.58 115.006 19.46C114.606 20.3267 114.052 20.9933 113.346 21.46C112.639 21.9133 111.846 22.14 110.966 22.14C110.232 22.14 109.599 21.9933 109.066 21.7C108.546 21.3933 108.146 20.98 107.866 20.46V22H103.426V7.2H107.866V12.26ZM111.126 16.36C111.126 15.76 110.972 15.2933 110.666 14.96C110.359 14.6267 109.966 14.46 109.486 14.46C109.006 14.46 108.612 14.6267 108.306 14.96C107.999 15.2933 107.846 15.76 107.846 16.36C107.846 16.96 107.999 17.4267 108.306 17.76C108.612 18.0933 109.006 18.26 109.486 18.26C109.966 18.26 110.359 18.0933 110.666 17.76C110.972 17.4267 111.126 16.96 111.126 16.36ZM127.94 16.26C127.94 16.5667 127.92 16.86 127.88 17.14H120.74C120.806 18.1133 121.213 18.6 121.96 18.6C122.44 18.6 122.786 18.38 123 17.94H127.7C127.54 18.74 127.2 19.46 126.68 20.1C126.173 20.7267 125.526 21.2267 124.74 21.6C123.966 21.96 123.113 22.14 122.18 22.14C121.06 22.14 120.06 21.9067 119.18 21.44C118.313 20.9733 117.633 20.3067 117.14 19.44C116.66 18.56 116.42 17.5333 116.42 16.36C116.42 15.1867 116.66 14.1667 117.14 13.3C117.633 12.42 118.313 11.7467 119.18 11.28C120.06 10.8133 121.06 10.58 122.18 10.58C123.3 10.58 124.293 10.8133 125.16 11.28C126.04 11.7333 126.72 12.3867 127.2 13.24C127.693 14.0933 127.94 15.1 127.94 16.26ZM123.44 15.2C123.44 14.8267 123.32 14.5467 123.08 14.36C122.84 14.16 122.54 14.06 122.18 14.06C121.393 14.06 120.933 14.44 120.8 15.2H123.44ZM134.364 22.14C133.297 22.14 132.35 21.9667 131.524 21.62C130.71 21.2733 130.064 20.7933 129.584 20.18C129.104 19.5667 128.83 18.8733 128.764 18.1H133.024C133.077 18.4333 133.217 18.68 133.444 18.84C133.684 19 133.984 19.08 134.344 19.08C134.57 19.08 134.75 19.0333 134.884 18.94C135.017 18.8333 135.084 18.7067 135.084 18.56C135.084 18.3067 134.944 18.1267 134.664 18.02C134.384 17.9133 133.91 17.7933 133.244 17.66C132.43 17.5 131.757 17.3267 131.224 17.14C130.704 16.9533 130.244 16.6333 129.844 16.18C129.457 15.7267 129.264 15.1 129.264 14.3C129.264 13.6067 129.444 12.98 129.804 12.42C130.177 11.8467 130.724 11.4 131.444 11.08C132.164 10.7467 133.037 10.58 134.064 10.58C135.584 10.58 136.77 10.9533 137.624 11.7C138.49 12.4467 139.01 13.42 139.184 14.62H135.244C135.177 14.3133 135.037 14.08 134.824 13.92C134.61 13.7467 134.324 13.66 133.964 13.66C133.737 13.66 133.564 13.7067 133.444 13.8C133.324 13.88 133.264 14.0067 133.264 14.18C133.264 14.4067 133.404 14.58 133.684 14.7C133.964 14.8067 134.41 14.92 135.024 15.04C135.837 15.2 136.524 15.38 137.084 15.58C137.644 15.78 138.13 16.1267 138.544 16.62C138.957 17.1 139.164 17.7667 139.164 18.62C139.164 19.2867 138.97 19.8867 138.584 20.42C138.197 20.9533 137.637 21.3733 136.904 21.68C136.184 21.9867 135.337 22.14 134.364 22.14Z" fill="white"/>
</svg>
