<svg width="103" height="30" viewBox="0 0 103 30" fill="none" xmlns="http://www.w3.org/2000/svg">
<path d="M11.7704 9.768L7.78638 21H4.36238L0.378375 9.768H3.29038L6.07438 18.248L8.87438 9.768H11.7704ZM21.3299 16.392C21.3299 16.648 21.3139 16.9147 21.2819 17.192H15.0899C15.1325 17.7467 15.3085 18.1733 15.6179 18.472C15.9379 18.76 16.3272 18.904 16.7859 18.904C17.4685 18.904 17.9432 18.616 18.2099 18.04H21.1219C20.9725 18.6267 20.7005 19.1547 20.3059 19.624C19.9219 20.0933 19.4365 20.4613 18.8499 20.728C18.2632 20.9947 17.6072 21.128 16.8819 21.128C16.0072 21.128 15.2285 20.9413 14.5459 20.568C13.8632 20.1947 13.3299 19.6613 12.9459 18.968C12.5619 18.2747 12.3699 17.464 12.3699 16.536C12.3699 15.608 12.5565 14.7973 12.9299 14.104C13.3139 13.4107 13.8472 12.8773 14.5299 12.504C15.2125 12.1307 15.9965 11.944 16.8819 11.944C17.7459 11.944 18.5139 12.1253 19.1859 12.488C19.8579 12.8507 20.3805 13.368 20.7539 14.04C21.1379 14.712 21.3299 15.496 21.3299 16.392ZM18.5299 15.672C18.5299 15.2027 18.3699 14.8293 18.0499 14.552C17.7299 14.2747 17.3299 14.136 16.8499 14.136C16.3912 14.136 16.0019 14.2693 15.6819 14.536C15.3725 14.8027 15.1805 15.1813 15.1059 15.672H18.5299ZM26.4053 21.128C25.6266 21.128 24.9333 20.9947 24.3253 20.728C23.7173 20.4613 23.2373 20.0987 22.8853 19.64C22.5333 19.1707 22.3359 18.648 22.2933 18.072H24.9973C25.0293 18.3813 25.1733 18.632 25.4293 18.824C25.6853 19.016 25.9999 19.112 26.3733 19.112C26.7146 19.112 26.9759 19.048 27.1573 18.92C27.3493 18.7813 27.4453 18.6053 27.4453 18.392C27.4453 18.136 27.3119 17.9493 27.0453 17.832C26.7786 17.704 26.3466 17.5653 25.7493 17.416C25.1093 17.2667 24.5759 17.112 24.1493 16.952C23.7226 16.7813 23.3546 16.52 23.0453 16.168C22.7359 15.8053 22.5813 15.32 22.5813 14.712C22.5813 14.2 22.7199 13.736 22.9973 13.32C23.2853 12.8933 23.7013 12.5573 24.2453 12.312C24.7999 12.0667 25.4559 11.944 26.2133 11.944C27.3333 11.944 28.2133 12.2213 28.8533 12.776C29.5039 13.3307 29.8773 14.0667 29.9733 14.984H27.4453C27.4026 14.6747 27.2639 14.4293 27.0293 14.248C26.8053 14.0667 26.5066 13.976 26.1333 13.976C25.8133 13.976 25.5679 14.04 25.3973 14.168C25.2266 14.2853 25.1413 14.4507 25.1413 14.664C25.1413 14.92 25.2746 15.112 25.5413 15.24C25.8186 15.368 26.2453 15.496 26.8213 15.624C27.4826 15.7947 28.0213 15.9653 28.4373 16.136C28.8533 16.296 29.2159 16.5627 29.5253 16.936C29.8453 17.2987 30.0106 17.7893 30.0213 18.408C30.0213 18.9307 29.8719 19.4 29.5733 19.816C29.2853 20.2213 28.8639 20.5413 28.3093 20.776C27.7653 21.0107 27.1306 21.128 26.4053 21.128ZM36.6711 18.68V21H35.2791C34.2871 21 33.5138 20.76 32.9591 20.28C32.4045 19.7893 32.1271 18.9947 32.1271 17.896V14.344H31.0391V12.072H32.1271V9.896H34.8631V12.072H36.6551V14.344H34.8631V17.928C34.8631 18.1947 34.9271 18.3867 35.0551 18.504C35.1831 18.6213 35.3965 18.68 35.6951 18.68H36.6711ZM39.5711 11.144C39.0911 11.144 38.6965 11.0053 38.3871 10.728C38.0885 10.44 37.9391 10.088 37.9391 9.672C37.9391 9.24533 38.0885 8.89333 38.3871 8.616C38.6965 8.328 39.0911 8.184 39.5711 8.184C40.0405 8.184 40.4245 8.328 40.7231 8.616C41.0325 8.89333 41.1871 9.24533 41.1871 9.672C41.1871 10.088 41.0325 10.44 40.7231 10.728C40.4245 11.0053 40.0405 11.144 39.5711 11.144ZM40.9311 12.072V21H38.1951V12.072H40.9311ZM45.6499 13.56C45.9699 13.0693 46.3699 12.6853 46.8499 12.408C47.3299 12.12 47.8632 11.976 48.4499 11.976V14.872H47.6979C47.0152 14.872 46.5032 15.0213 46.1619 15.32C45.8205 15.608 45.6499 16.12 45.6499 16.856V21H42.9139V12.072H45.6499V13.56Z" fill="black"/>
<path d="M59.42 7.96L54.44 22H50.16L45.18 7.96H48.82L52.3 18.56L55.8 7.96H59.42ZM62.5694 9.68C61.9694 9.68 61.476 9.50667 61.0894 9.16C60.716 8.8 60.5294 8.36 60.5294 7.84C60.5294 7.30667 60.716 6.86667 61.0894 6.52C61.476 6.16 61.9694 5.98 62.5694 5.98C63.156 5.98 63.636 6.16 64.0094 6.52C64.396 6.86667 64.5894 7.30667 64.5894 7.84C64.5894 8.36 64.396 8.8 64.0094 9.16C63.636 9.50667 63.156 9.68 62.5694 9.68ZM64.2694 10.84V22H60.8494V10.84H64.2694ZM70.1678 12.42C70.4878 11.9 70.9478 11.48 71.5478 11.16C72.1478 10.84 72.8345 10.68 73.6078 10.68C74.5278 10.68 75.3611 10.9133 76.1078 11.38C76.8545 11.8467 77.4411 12.5133 77.8678 13.38C78.3078 14.2467 78.5278 15.2533 78.5278 16.4C78.5278 17.5467 78.3078 18.56 77.8678 19.44C77.4411 20.3067 76.8545 20.98 76.1078 21.46C75.3611 21.9267 74.5278 22.16 73.6078 22.16C72.8211 22.16 72.1345 22.0067 71.5478 21.7C70.9611 21.38 70.5011 20.96 70.1678 20.44V22H66.7478V7.2H70.1678V12.42ZM75.0478 16.4C75.0478 15.5467 74.8078 14.88 74.3278 14.4C73.8611 13.9067 73.2811 13.66 72.5878 13.66C71.9078 13.66 71.3278 13.9067 70.8478 14.4C70.3811 14.8933 70.1478 15.5667 70.1478 16.42C70.1478 17.2733 70.3811 17.9467 70.8478 18.44C71.3278 18.9333 71.9078 19.18 72.5878 19.18C73.2678 19.18 73.8478 18.9333 74.3278 18.44C74.8078 17.9333 75.0478 17.2533 75.0478 16.4ZM90.842 16.24C90.842 16.56 90.822 16.8933 90.782 17.24H83.042C83.0954 17.9333 83.3154 18.4667 83.702 18.84C84.102 19.2 84.5887 19.38 85.162 19.38C86.0154 19.38 86.6087 19.02 86.942 18.3H90.582C90.3954 19.0333 90.0554 19.6933 89.562 20.28C89.082 20.8667 88.4754 21.3267 87.742 21.66C87.0087 21.9933 86.1887 22.16 85.282 22.16C84.1887 22.16 83.2154 21.9267 82.362 21.46C81.5087 20.9933 80.842 20.3267 80.362 19.46C79.882 18.5933 79.642 17.58 79.642 16.42C79.642 15.26 79.8754 14.2467 80.342 13.38C80.822 12.5133 81.4887 11.8467 82.342 11.38C83.1954 10.9133 84.1754 10.68 85.282 10.68C86.362 10.68 87.322 10.9067 88.162 11.36C89.002 11.8133 89.6554 12.46 90.122 13.3C90.602 14.14 90.842 15.12 90.842 16.24ZM87.342 15.34C87.342 14.7533 87.142 14.2867 86.742 13.94C86.342 13.5933 85.842 13.42 85.242 13.42C84.6687 13.42 84.182 13.5867 83.782 13.92C83.3954 14.2533 83.1554 14.7267 83.062 15.34H87.342ZM97.1863 22.16C96.2129 22.16 95.3463 21.9933 94.5863 21.66C93.8263 21.3267 93.2263 20.8733 92.7863 20.3C92.3463 19.7133 92.0996 19.06 92.0463 18.34H95.4263C95.4663 18.7267 95.6463 19.04 95.9663 19.28C96.2863 19.52 96.6796 19.64 97.1463 19.64C97.5729 19.64 97.8996 19.56 98.1263 19.4C98.3663 19.2267 98.4863 19.0067 98.4863 18.74C98.4863 18.42 98.3196 18.1867 97.9863 18.04C97.6529 17.88 97.1129 17.7067 96.3663 17.52C95.5663 17.3333 94.8996 17.14 94.3663 16.94C93.8329 16.7267 93.3729 16.4 92.9863 15.96C92.5996 15.5067 92.4063 14.9 92.4063 14.14C92.4063 13.5 92.5796 12.92 92.9263 12.4C93.2863 11.8667 93.8063 11.4467 94.4863 11.14C95.1796 10.8333 95.9996 10.68 96.9463 10.68C98.3463 10.68 99.4463 11.0267 100.246 11.72C101.06 12.4133 101.526 13.3333 101.646 14.48H98.4863C98.4329 14.0933 98.2596 13.7867 97.9663 13.56C97.6863 13.3333 97.3129 13.22 96.8463 13.22C96.4463 13.22 96.1396 13.3 95.9263 13.46C95.7129 13.6067 95.6063 13.8133 95.6063 14.08C95.6063 14.4 95.7729 14.64 96.1063 14.8C96.4529 14.96 96.9863 15.12 97.7063 15.28C98.5329 15.4933 99.2063 15.7067 99.7263 15.92C100.246 16.12 100.7 16.4533 101.086 16.92C101.486 17.3733 101.693 17.9867 101.706 18.76C101.706 19.4133 101.52 20 101.146 20.52C100.786 21.0267 100.26 21.4267 99.5663 21.72C98.8863 22.0133 98.0929 22.16 97.1863 22.16Z" fill="white"/>
</svg>
