<svg width="156" height="36" viewBox="0 0 156 36" fill="none" xmlns="http://www.w3.org/2000/svg">
<path d="M53.588 13.96L48.608 28H44.328L39.348 13.96H42.988L46.468 24.56L49.968 13.96H53.588ZM65.5373 22.24C65.5373 22.56 65.5173 22.8933 65.4773 23.24H57.7373C57.7907 23.9333 58.0107 24.4667 58.3973 24.84C58.7973 25.2 59.284 25.38 59.8573 25.38C60.7107 25.38 61.304 25.02 61.6373 24.3H65.2773C65.0907 25.0333 64.7507 25.6933 64.2573 26.28C63.7773 26.8667 63.1707 27.3267 62.4373 27.66C61.704 27.9933 60.884 28.16 59.9773 28.16C58.884 28.16 57.9107 27.9267 57.0573 27.46C56.204 26.9933 55.5373 26.3267 55.0573 25.46C54.5773 24.5933 54.3373 23.58 54.3373 22.42C54.3373 21.26 54.5707 20.2467 55.0373 19.38C55.5173 18.5133 56.184 17.8467 57.0373 17.38C57.8907 16.9133 58.8707 16.68 59.9773 16.68C61.0573 16.68 62.0173 16.9067 62.8573 17.36C63.6973 17.8133 64.3507 18.46 64.8173 19.3C65.2973 20.14 65.5373 21.12 65.5373 22.24ZM62.0373 21.34C62.0373 20.7533 61.8373 20.2867 61.4373 19.94C61.0373 19.5933 60.5373 19.42 59.9373 19.42C59.364 19.42 58.8773 19.5867 58.4773 19.92C58.0907 20.2533 57.8507 20.7267 57.7573 21.34H62.0373ZM71.8816 28.16C70.9082 28.16 70.0416 27.9933 69.2816 27.66C68.5216 27.3267 67.9216 26.8733 67.4816 26.3C67.0416 25.7133 66.7949 25.06 66.7416 24.34H70.1216C70.1616 24.7267 70.3416 25.04 70.6616 25.28C70.9816 25.52 71.3749 25.64 71.8416 25.64C72.2682 25.64 72.5949 25.56 72.8216 25.4C73.0616 25.2267 73.1816 25.0067 73.1816 24.74C73.1816 24.42 73.0149 24.1867 72.6816 24.04C72.3482 23.88 71.8082 23.7067 71.0616 23.52C70.2616 23.3333 69.5949 23.14 69.0616 22.94C68.5282 22.7267 68.0682 22.4 67.6816 21.96C67.2949 21.5067 67.1016 20.9 67.1016 20.14C67.1016 19.5 67.2749 18.92 67.6216 18.4C67.9816 17.8667 68.5016 17.4467 69.1816 17.14C69.8749 16.8333 70.6949 16.68 71.6416 16.68C73.0416 16.68 74.1416 17.0267 74.9416 17.72C75.7549 18.4133 76.2216 19.3333 76.3416 20.48H73.1816C73.1282 20.0933 72.9549 19.7867 72.6616 19.56C72.3816 19.3333 72.0082 19.22 71.5416 19.22C71.1416 19.22 70.8349 19.3 70.6216 19.46C70.4082 19.6067 70.3016 19.8133 70.3016 20.08C70.3016 20.4 70.4682 20.64 70.8016 20.8C71.1482 20.96 71.6816 21.12 72.4016 21.28C73.2282 21.4933 73.9016 21.7067 74.4216 21.92C74.9416 22.12 75.3949 22.4533 75.7816 22.92C76.1816 23.3733 76.3882 23.9867 76.4016 24.76C76.4016 25.4133 76.2149 26 75.8416 26.52C75.4816 27.0267 74.9549 27.4267 74.2616 27.72C73.5816 28.0133 72.7882 28.16 71.8816 28.16ZM84.7139 25.1V28H82.9739C81.7339 28 80.7672 27.7 80.0739 27.1C79.3806 26.4867 79.0339 25.4933 79.0339 24.12V19.68H77.6739V16.84H79.0339V14.12H82.4539V16.84H84.6939V19.68H82.4539V24.16C82.4539 24.4933 82.5339 24.7333 82.6939 24.88C82.8539 25.0267 83.1206 25.1 83.4939 25.1H84.7139ZM88.3389 15.68C87.7389 15.68 87.2456 15.5067 86.8589 15.16C86.4856 14.8 86.2989 14.36 86.2989 13.84C86.2989 13.3067 86.4856 12.8667 86.8589 12.52C87.2456 12.16 87.7389 11.98 88.3389 11.98C88.9256 11.98 89.4056 12.16 89.7789 12.52C90.1656 12.8667 90.3589 13.3067 90.3589 13.84C90.3589 14.36 90.1656 14.8 89.7789 15.16C89.4056 15.5067 88.9256 15.68 88.3389 15.68ZM90.0389 16.84V28H86.6189V16.84H90.0389ZM95.9373 18.7C96.3373 18.0867 96.8373 17.6067 97.4373 17.26C98.0373 16.9 98.704 16.72 99.4373 16.72V20.34H98.4973C97.644 20.34 97.004 20.5267 96.5773 20.9C96.1507 21.26 95.9373 21.9 95.9373 22.82V28H92.5173V16.84H95.9373V18.7Z" fill="black"/>
<path d="M112.42 13.96L107.44 28H103.16L98.18 13.96H101.82L105.3 24.56L108.8 13.96H112.42ZM115.569 15.68C114.969 15.68 114.476 15.5067 114.089 15.16C113.716 14.8 113.529 14.36 113.529 13.84C113.529 13.3067 113.716 12.8667 114.089 12.52C114.476 12.16 114.969 11.98 115.569 11.98C116.156 11.98 116.636 12.16 117.009 12.52C117.396 12.8667 117.589 13.3067 117.589 13.84C117.589 14.36 117.396 14.8 117.009 15.16C116.636 15.5067 116.156 15.68 115.569 15.68ZM117.269 16.84V28H113.849V16.84H117.269ZM123.168 18.42C123.488 17.9 123.948 17.48 124.548 17.16C125.148 16.84 125.834 16.68 126.608 16.68C127.528 16.68 128.361 16.9133 129.108 17.38C129.854 17.8467 130.441 18.5133 130.868 19.38C131.308 20.2467 131.528 21.2533 131.528 22.4C131.528 23.5467 131.308 24.56 130.868 25.44C130.441 26.3067 129.854 26.98 129.108 27.46C128.361 27.9267 127.528 28.16 126.608 28.16C125.821 28.16 125.134 28.0067 124.548 27.7C123.961 27.38 123.501 26.96 123.168 26.44V28H119.748V13.2H123.168V18.42ZM128.048 22.4C128.048 21.5467 127.808 20.88 127.328 20.4C126.861 19.9067 126.281 19.66 125.588 19.66C124.908 19.66 124.328 19.9067 123.848 20.4C123.381 20.8933 123.148 21.5667 123.148 22.42C123.148 23.2733 123.381 23.9467 123.848 24.44C124.328 24.9333 124.908 25.18 125.588 25.18C126.268 25.18 126.848 24.9333 127.328 24.44C127.808 23.9333 128.048 23.2533 128.048 22.4ZM143.842 22.24C143.842 22.56 143.822 22.8933 143.782 23.24H136.042C136.095 23.9333 136.315 24.4667 136.702 24.84C137.102 25.2 137.589 25.38 138.162 25.38C139.015 25.38 139.609 25.02 139.942 24.3H143.582C143.395 25.0333 143.055 25.6933 142.562 26.28C142.082 26.8667 141.475 27.3267 140.742 27.66C140.009 27.9933 139.189 28.16 138.282 28.16C137.189 28.16 136.215 27.9267 135.362 27.46C134.509 26.9933 133.842 26.3267 133.362 25.46C132.882 24.5933 132.642 23.58 132.642 22.42C132.642 21.26 132.875 20.2467 133.342 19.38C133.822 18.5133 134.489 17.8467 135.342 17.38C136.195 16.9133 137.175 16.68 138.282 16.68C139.362 16.68 140.322 16.9067 141.162 17.36C142.002 17.8133 142.655 18.46 143.122 19.3C143.602 20.14 143.842 21.12 143.842 22.24ZM140.342 21.34C140.342 20.7533 140.142 20.2867 139.742 19.94C139.342 19.5933 138.842 19.42 138.242 19.42C137.669 19.42 137.182 19.5867 136.782 19.92C136.395 20.2533 136.155 20.7267 136.062 21.34H140.342ZM150.186 28.16C149.213 28.16 148.346 27.9933 147.586 27.66C146.826 27.3267 146.226 26.8733 145.786 26.3C145.346 25.7133 145.1 25.06 145.046 24.34H148.426C148.466 24.7267 148.646 25.04 148.966 25.28C149.286 25.52 149.68 25.64 150.146 25.64C150.573 25.64 150.9 25.56 151.126 25.4C151.366 25.2267 151.486 25.0067 151.486 24.74C151.486 24.42 151.32 24.1867 150.986 24.04C150.653 23.88 150.113 23.7067 149.366 23.52C148.566 23.3333 147.9 23.14 147.366 22.94C146.833 22.7267 146.373 22.4 145.986 21.96C145.6 21.5067 145.406 20.9 145.406 20.14C145.406 19.5 145.58 18.92 145.926 18.4C146.286 17.8667 146.806 17.4467 147.486 17.14C148.18 16.8333 149 16.68 149.946 16.68C151.346 16.68 152.446 17.0267 153.246 17.72C154.06 18.4133 154.526 19.3333 154.646 20.48H151.486C151.433 20.0933 151.26 19.7867 150.966 19.56C150.686 19.3333 150.313 19.22 149.846 19.22C149.446 19.22 149.14 19.3 148.926 19.46C148.713 19.6067 148.606 19.8133 148.606 20.08C148.606 20.4 148.773 20.64 149.106 20.8C149.453 20.96 149.986 21.12 150.706 21.28C151.533 21.4933 152.206 21.7067 152.726 21.92C153.246 22.12 153.7 22.4533 154.086 22.92C154.486 23.3733 154.693 23.9867 154.706 24.76C154.706 25.4133 154.52 26 154.146 26.52C153.786 27.0267 153.26 27.4267 152.566 27.72C151.886 28.0133 151.093 28.16 150.186 28.16Z" fill="white"/>
<path d="M31 29H4L16.4615 5L31 29Z" stroke="black" stroke-width="4"/>
<path d="M11.8087 16.0909L14.4454 24.3793H14.5466L17.1887 16.0909H19.7455L15.9848 27H13.0125L9.24654 16.0909H11.8087Z" fill="black"/>
<line x1="22.7936" y1="20.5797" x2="27.3103" y2="16.276" stroke="#E74C3C" stroke-width="2"/>
</svg>
